<svg width="68" height="70" viewBox="0 0 68 70" fill="none" xmlns="http://www.w3.org/2000/svg">
<path d="M15.0113 57.0919C13.6605 55.8285 13.6605 53.7803 15.0113 52.5169L27.6253 40.7181L27.7645 40.5879L28 34.2349C28 32.4485 26.4514 31 24.5416 31H6.45845C4.54863 31 3 32.4485 3 34.2349V52.8561C3 53.8563 3.72916 54.5848 4.31836 55.397C4.77814 56.0326 19.6263 69.591 19.6263 69.591C21.9312 70.784 24.759 69.2243 24.759 66.7601L24.817 66.2646L15.0105 57.0919H15.0113Z" fill="white"/>
<path d="M67.0088 35.1458L52.0796 20.4777C52.0796 20.4777 52.0774 20.4798 52.0745 20.4827L52.0693 20.4777L37.309 5.97554C35.9852 4.67482 33.8389 4.67482 32.5151 5.97554L31.0194 7.4451C32.8625 10.1987 33.9363 13.4951 33.9363 17.0371C33.9363 21.0349 32.5697 24.7175 30.2708 27.6624C30.9913 28.2733 31.4486 29.1762 31.4486 30.1849L31.3092 34.1276L32.3454 35.1458C33.6693 36.4465 33.6693 38.5552 32.3454 39.8559L19.9822 52.003C19.4121 52.5631 19.0883 53.2732 19.0094 54.0037L19.0182 54.0124C18.9164 54.9754 19.241 55.9747 19.9925 56.7124L28.1127 64.6906C28.1127 64.6906 28.1113 64.6957 28.1105 64.6978L32.5151 69.0254C33.1066 69.6065 33.8633 69.9275 34.6362 69.9891H34.6414C34.6937 69.9935 34.7454 69.9964 34.7977 69.9978C34.8309 69.9993 34.8641 70 34.8973 70H34.9349C34.9799 70 35.0249 69.9986 35.0699 69.9971H35.0765C35.1333 69.9949 35.1901 69.9913 35.2462 69.9855C35.3 69.9804 35.3538 69.9739 35.4077 69.9667C35.5154 69.9515 35.6223 69.9312 35.7278 69.9058C35.9394 69.8551 36.1474 69.7841 36.348 69.6928C36.4985 69.6239 36.6445 69.5442 36.7861 69.4529C36.9742 69.3312 37.1527 69.1884 37.3179 69.0261L52.0781 54.524L67.0073 39.8559C67.6688 39.2059 68 38.353 68 37.5008C68 36.6486 67.6688 35.7965 67.0073 35.1458H67.0088Z" fill="white"/>
<path d="M26.6272 28.4C29.3993 25.3871 31.1111 21.2509 31.1111 16.6841C31.1111 12.1172 29.5267 8.29144 26.9376 5.31143C25.3846 3.52481 19.1582 6.13729 17.0069 5.21631C15.225 4.45358 17.5915 0 15.5556 0C6.9642 0 0 7.46991 0 16.6832C0 21.2501 1.71263 25.3863 4.48395 28.3991H26.6272V28.4Z" fill="#9874FF"/>
</svg>
