<svg width="85" height="86" viewBox="0 0 85 86" fill="none" xmlns="http://www.w3.org/2000/svg">
<rect width="85" height="86" fill="#1E1E1E"/>
<path d="M32.9644 34C35.4594 31.4539 37 27.9585 37 24.0992C37 20.2399 35.574 17.0069 33.2438 14.4885C31.8462 12.9787 26.2424 15.1864 24.3062 14.4081C22.7025 13.7636 24.8324 10 23 10C15.2678 10 9 16.3126 9 24.0985C9 27.9578 10.5414 31.4532 13.0356 33.9993H32.9644V34Z" fill="#9874FF"/>
<path d="M23.0113 68.0919C21.6605 66.8285 21.6605 64.7803 23.0113 63.5169L35.6253 51.7181L35.7645 51.5879L36 45.2349C36 43.4485 34.4514 42 32.5416 42H14.4584C12.5486 42 11 43.4485 11 45.2349V63.8561C11 64.8563 11.7292 65.5848 12.3184 66.397C12.7781 67.0326 27.6263 80.591 27.6263 80.591C29.9312 81.784 32.759 80.2243 32.759 77.7601L32.817 77.2646L23.0105 68.0919H23.0113Z" fill="white"/>
<path d="M77.0088 46.1458L62.0796 31.4777C62.0796 31.4777 62.0774 31.4798 62.0745 31.4827L62.0693 31.4777L47.309 16.9755C45.9852 15.6748 43.8389 15.6748 42.5151 16.9755L41.0194 18.4451C42.8625 21.1987 43.9363 24.4951 43.9363 28.0371C43.9363 32.0349 42.5697 35.7175 40.2708 38.6624C40.9913 39.2733 41.4486 40.1762 41.4486 41.1849L41.3092 45.1276L42.3454 46.1458C43.6693 47.4465 43.6693 49.5552 42.3454 50.8559L29.9822 63.003C29.4121 63.5631 29.0883 64.2732 29.0094 65.0037L29.0182 65.0124C28.9164 65.9754 29.241 66.9747 29.9925 67.7124L38.1127 75.6906C38.1127 75.6906 38.1113 75.6957 38.1105 75.6978L42.5151 80.0254C43.1066 80.6065 43.8633 80.9275 44.6362 80.9891H44.6414C44.6937 80.9935 44.7454 80.9964 44.7977 80.9978C44.8309 80.9993 44.8641 81 44.8973 81H44.9349C44.9799 81 45.0249 80.9986 45.0699 80.9971H45.0765C45.1333 80.9949 45.1901 80.9913 45.2462 80.9855C45.3 80.9804 45.3538 80.9739 45.4077 80.9667C45.5154 80.9515 45.6223 80.9312 45.7278 80.9058C45.9394 80.8551 46.1474 80.7841 46.348 80.6928C46.4985 80.6239 46.6445 80.5442 46.7861 80.4529C46.9742 80.3312 47.1527 80.1884 47.3179 80.0261L62.0781 65.524L77.0073 50.8559C77.6688 50.2059 78 49.353 78 48.5008C78 47.6486 77.6688 46.7965 77.0073 46.1458H77.0088Z" fill="white"/>
</svg>
